<?xml version="1.0" standalone="no"?>
<!DOCTYPE svg PUBLIC "-//W3C//DTD SVG 20010904//EN"
 "http://www.w3.org/TR/2001/REC-SVG-20010904/DTD/svg10.dtd">
<svg version="1.0" xmlns="http://www.w3.org/2000/svg"
 width="512.000000pt" height="512.000000pt" viewBox="0 0 512.000000 512.000000"
 preserveAspectRatio="xMidYMid meet">
<metadata>
Created by potrace 1.11, written by Peter Selinger 2001-2013
</metadata>
<g transform="translate(0.000000,512.000000) scale(0.100000,-0.100000)"
fill="#000000" stroke="none">
<path d="M849 5056 c-99 -26 -174 -89 -227 -189 l-27 -52 -3 -2237 -2 -2237
22 -58 c30 -80 121 -171 201 -201 l58 -22 1697 2 1697 3 56 26 c32 15 75 45
98 68 82 82 111 178 111 368 l0 102 58 6 c31 3 74 10 96 16 49 13 128 87 158
147 23 47 23 50 26 521 2 322 -1 491 -8 527 -17 83 -91 166 -157 179 -10 2
-18 4 -18 5 0 0 -26 3 -59 5 -48 4 -57 2 -52 -10 5 -13 -48 -15 -424 -15 -361
0 -429 2 -424 14 4 9 -4 15 -25 18 -16 2 -27 0 -24 -5 3 -5 -8 -8 -23 -7 -16
1 -31 1 -34 0 -3 -1 -13 -3 -23 -5 -52 -10 -129 -90 -146 -151 l-7 -29 -1015
-5 c-775 -4 -1019 -8 -1035 -17 -35 -20 -73 -71 -84 -114 -21 -77 13 -155 85
-196 l40 -23 1003 0 1002 0 0 -180 0 -180 -992 -1 c-745 0 -1001 -4 -1026 -13
-86 -31 -137 -130 -111 -217 16 -53 67 -105 116 -118 25 -7 373 -11 1041 -11
l1002 0 56 -55 c38 -37 69 -58 97 -66 52 -14 249 -28 395 -29 61 0 112 -2 112
-5 0 -40 -99 -136 -178 -173 l-57 -27 -1340 0 -1340 0 -66 32 c-79 39 -140
102 -177 181 l-27 57 -3 1845 c-1 1210 1 1861 8 1892 24 113 99 210 200 257
l55 26 857 3 857 2 3 -497 c3 -496 3 -498 26 -545 37 -74 96 -134 170 -170
l67 -33 492 -3 493 -3 0 -709 0 -710 180 0 180 0 0 887 0 888 -627 627 -628
628 -1190 -1 c-910 0 -1201 -3 -1236 -13z m3559 -3956 l-3 -240 -158 145 -157
145 -95 0 -95 0 0 190 0 190 95 0 95 0 157 145 158 145 3 -240 c1 -132 1 -348
0 -480z"/>
<path d="M1423 3269 c-45 -13 -98 -71 -113 -124 -24 -87 33 -191 118 -214 23
-7 212 -11 505 -11 400 0 473 2 505 15 75 32 112 86 112 165 0 79 -37 133
-112 165 -32 13 -105 15 -510 14 -260 0 -488 -5 -505 -10z"/>
<path d="M1404 2541 c-126 -58 -135 -227 -15 -308 l34 -23 1129 0 c1245 0
1155 -5 1216 64 72 83 44 214 -59 266 -37 20 -63 20 -1151 20 -1062 0 -1115
-1 -1154 -19z"/>
</g>
</svg>
